<svg width="32" height="32" viewBox="0 0 32 32" fill="none" xmlns="http://www.w3.org/2000/svg">
  <defs>
    <linearGradient id="logoGradient" x1="0%" y1="0%" x2="100%" y2="100%">
      <stop offset="0%" stop-color="#7C3AED" />
      <stop offset="100%" stop-color="#06B6D4" />
    </linearGradient>
    <style>
      @import url('https://fonts.googleapis.com/css2?family=Pacifico');
      .pacifico { font-family: 'Pacifico', cursive; }
    </style>
  </defs>
  <rect width="32" height="32" rx="6" fill="url(#logoGradient)"/>
<g id="svgGroup" transform="translate(8, 6)"  stroke-linecap="round" fill-rule="evenodd" font-size="9pt" stroke="#ffffff" stroke-width="0" fill="#ffffff" style="stroke:#ffffff;stroke-width:0;fill:#ffffff"><path d="M 18.071 10.387 A 2.013 2.013 0 0 0 17.784 10.368 A 24.127 24.127 0 0 1 17.569 10.367 Q 16.821 10.361 16.152 10.307 A 14.47 14.47 0 0 1 14.88 10.152 A 24.797 24.797 0 0 0 15.025 9.746 Q 16.08 6.716 16.08 4.128 Q 16.08 3.198 15.869 2.46 A 3.746 3.746 0 0 0 15.18 1.104 A 2.875 2.875 0 0 0 13.877 0.179 A 3.437 3.437 0 0 0 12.744 0 Q 11.496 0 10.476 0.648 A 3.893 3.893 0 0 0 9.465 1.586 A 5.164 5.164 0 0 0 8.868 2.604 A 5.565 5.565 0 0 0 8.7 3.024 Q 8.28 4.206 8.28 5.808 A 8.615 8.615 0 0 0 8.368 7.059 A 6.695 6.695 0 0 0 9.024 9.156 Q 9.768 10.608 11.232 11.52 A 27.443 27.443 0 0 1 11.073 11.854 Q 9.914 14.248 8.544 15.864 A 9.781 9.781 0 0 1 8.256 16.19 Q 6.957 17.592 5.832 17.592 A 1.429 1.429 0 0 1 5.448 17.541 Q 4.754 17.348 4.293 16.428 A 5.244 5.244 0 0 1 3.996 15.684 A 8.294 8.294 0 0 1 3.844 15.144 Q 3.533 13.889 3.433 12.03 A 35.718 35.718 0 0 1 3.384 10.104 Q 3.384 8.243 3.587 6.151 A 57.272 57.272 0 0 1 4.104 2.28 A 15.647 15.647 0 0 0 4.111 2.225 Q 4.142 1.971 4.15 1.833 A 1.468 1.468 0 0 0 4.152 1.752 Q 4.152 0.673 3.166 0.445 A 2.668 2.668 0 0 0 2.568 0.384 A 4.119 4.119 0 0 0 2.551 0.384 Q 2.008 0.386 1.647 0.533 A 1.147 1.147 0 0 0 1.212 0.828 Q 0.816 1.272 0.6 2.52 Q 0 5.88 0 10.104 A 32.6 32.6 0 0 0 0.126 13.062 Q 0.251 14.436 0.502 15.602 A 13.24 13.24 0 0 0 1.224 17.952 A 8.477 8.477 0 0 0 1.268 18.053 Q 2.492 20.856 4.944 20.856 A 5.16 5.16 0 0 0 6.453 20.627 Q 7.363 20.35 8.271 19.739 A 10.724 10.724 0 0 0 9.78 18.492 A 18.261 18.261 0 0 0 11.902 15.987 A 23.257 23.257 0 0 0 13.896 12.552 Q 15.384 12.888 17.304 12.84 Q 17.614 12.831 17.859 12.752 A 1.222 1.222 0 0 0 18.468 12.336 Q 18.84 11.856 18.84 11.232 A 1.093 1.093 0 0 0 18.836 11.138 A 0.801 0.801 0 0 0 18.588 10.608 Q 18.407 10.436 18.071 10.387 Z M 10.704 5.64 A 5.787 5.787 0 0 0 10.852 6.991 A 3.613 3.613 0 0 0 12.216 9.12 Q 13.131 6.494 13.152 4.761 A 6.682 6.682 0 0 0 13.152 4.68 A 6.134 6.134 0 0 0 13.132 4.169 Q 13.09 3.666 12.958 3.348 A 1.339 1.339 0 0 0 12.888 3.204 A 1.135 1.135 0 0 0 12.714 2.968 A 0.735 0.735 0 0 0 12.168 2.736 A 1.02 1.02 0 0 0 11.421 3.062 Q 11.252 3.232 11.112 3.492 A 2.859 2.859 0 0 0 10.872 4.118 Q 10.709 4.729 10.704 5.585 A 9.364 9.364 0 0 0 10.704 5.64 Z" vector-effect="non-scaling-stroke"/></g>
</svg>
